# xmcd
#
# Track frame offsets:
#	150
#	12885
#	34287
#	46058
#	60436
#	77259
#	89765
#	100345
#	113036
#	129248
#	145247
#	155924
#	166231
#	177826
#
# Disc length: 2538 seconds
#
# Revision: 3
# Processed by: cddbd v1.5.2PL0 Copyright (c) Steve Scherf et al.
# Submitted via: audiograbber 1.83.01
#
DISCID=ac09e80e
DTITLE=Johnny Winter - Memories Of Johnny Winter [CD2)
DYEAR=2000
DGENRE=Blues
TTITLE0=Rock 'N Roll People
TTITLE1=Raised On A Rock
TTITLE2=Avocado Green
TTITLE3=Low Down Gal Of Mine
TTITLE4=Kind Hearted Woman
TTITLE5=Parchman Farm
TTITLE6=38-32-20
TTITLE7=Leavin' Blues
TTITLE8=Nothing Left
TTITLE9=Self Destruction Blues
TTITLE10=That's What Love Does
TTITLE11=By The Light Of The Silvery Moon
TTITLE12=I Can't Believe You Want To Leave
TTITLE13=Leave My Woman Alone
EXTD=A product from Holland. Manufactured in European Union. (2000 BIEM/STEMRA)
EXTT0=
EXTT1=
EXTT2=
EXTT3=
EXTT4=
EXTT5=
EXTT6=
EXTT7=
EXTT8=
EXTT9=
EXTT10=
EXTT11=
EXTT12=
EXTT13=
PLAYORDER=
